<?xml version="1.0" encoding="UTF-8"?>
<svg version="1.1" xmlns="http://www.w3.org/2000/svg" width="1024" height="1536">
<path d="M0 0 C337.92 0 675.84 0 1024 0 C1024 506.88 1024 1013.76 1024 1536 C686.08 1536 348.16 1536 0 1536 C0 1029.12 0 522.24 0 0 Z " fill="#FEFCF4" transform="translate(0,0)"/>
<path d="M0 0 C0.89460937 0.36222656 1.78921875 0.72445312 2.7109375 1.09765625 C19.84585541 8.87427284 29.68759857 22.92487457 36.13671875 40.01171875 C38.19222634 46.55926242 39.04492273 52.86187872 39.01953125 59.72265625 C39.01671143 60.71144775 39.0138916 61.70023926 39.01098633 62.71899414 C39.00736084 63.47172607 39.00373535 64.22445801 39 65 C40.29099609 64.98428955 41.58199219 64.9685791 42.91210938 64.95239258 C47.72780046 64.89785959 52.54346454 64.8635651 57.359375 64.83520508 C59.43884887 64.82017157 61.51829131 64.79973926 63.59765625 64.77368164 C66.59643334 64.73705864 69.59478911 64.72021889 72.59375 64.70703125 C73.51490601 64.69154739 74.43606201 64.67606354 75.38513184 64.66011047 C84.36603826 64.65779877 91.91684541 67.13287948 98.5625 73.49609375 C107.27447772 82.92680963 107.94817136 93.69712456 108.9375 105.9375 C109.09976502 107.79683412 109.26346621 109.65604336 109.4284668 111.51513672 C109.87674315 116.61037133 110.30547425 121.70708889 110.7310791 126.80426025 C111.1814002 132.15568159 111.6500801 137.50549112 112.1171875 142.85546875 C112.9425574 152.33387963 113.75706127 161.81317722 114.56640625 171.29296875 C116.18872053 190.2763718 117.8511158 209.25626523 119.51345444 228.23619843 C119.74863933 230.92196142 119.98367502 233.60773744 120.21865845 236.29351807 C120.59118977 240.55137595 120.96393139 244.80921537 121.33687019 249.06703758 C121.47465773 250.64027686 121.61239911 252.21352019 121.75008965 253.78676796 C121.94095526 255.96715521 122.13204144 258.14752298 122.32324219 260.32788086 C122.41157003 261.33628918 122.41157003 261.33628918 122.50168228 262.36506939 C122.92391047 267.1717607 123.36312327 271.97672156 123.81593323 276.78062439 C125.10212735 292.2888437 123.4991603 305.48484942 113.3125 317.75 C105.0433827 326.53013017 92.26202758 332.72025956 80.11833096 333.13142776 C78.50521003 333.13953755 76.89205585 333.14211995 75.27891541 333.14044189 C74.38896096 333.14341302 73.49900652 333.14638414 72.58208376 333.1494453 C69.59369415 333.15813133 66.6053446 333.15964048 63.61694336 333.16113281 C61.47659215 333.16576115 59.33624176 333.17078584 57.19589233 333.17617798 C51.37532862 333.18930482 45.55477644 333.19574782 39.73420024 333.20018864 C36.09645034 333.20311968 32.45870359 333.20722461 28.82095528 333.21169281 C17.43582961 333.22537019 6.05071114 333.23503495 -5.33442217 333.2388947 C-18.46972519 333.24337234 -31.604924 333.26090561 -44.74019533 333.2898953 C-54.89662929 333.31153099 -65.05303397 333.32160004 -75.20949072 333.32293582 C-81.27347566 333.32398274 -87.33736267 333.32986638 -93.40132332 333.34775543 C-99.10995845 333.36426803 -104.81842236 333.36637605 -110.52707291 333.35761642 C-112.61717246 333.35684769 -114.70728134 333.36116711 -116.79735756 333.37107468 C-135.01947845 333.45235456 -149.95169826 331.52548941 -163.73828125 318.453125 C-171.70140704 309.81609046 -175.59090058 299.12934565 -175.4375 287.4375 C-175.43137695 286.56714111 -175.42525391 285.69678223 -175.41894531 284.80004883 C-175.15414559 272.53269225 -173.67732868 260.32106856 -172.42150879 248.12501526 C-171.15012866 235.76100702 -170.07056337 223.38802983 -169.0625 211 C-168.73134356 206.9569592 -168.39907555 202.91401033 -168.06640625 198.87109375 C-167.93925735 197.32485321 -167.93925735 197.32485321 -167.80953979 195.74737549 C-166.06464246 174.59940669 -164.1935921 153.46214582 -162.29748535 132.32727051 C-162.00808779 129.09045917 -161.72189402 125.85337952 -161.43652344 122.61621094 C-161.0085131 117.77260554 -160.56874256 112.93021757 -160.11889648 108.08859253 C-159.95865922 106.34685437 -159.80213133 104.60477021 -159.6496582 102.86233521 C-159.44113264 100.48913102 -159.2185269 98.11765596 -158.9921875 95.74609375 C-158.87214355 94.43310303 -158.75209961 93.1201123 -158.62841797 91.76733398 C-157.06805742 82.41305132 -152.99962448 76.38899488 -146 70 C-141.20078268 66.84196581 -136.28901552 64.87033889 -130.52856445 64.88647461 C-129.17750359 64.88658791 -129.17750359 64.88658791 -127.79914856 64.88670349 C-126.83031235 64.89186478 -125.86147614 64.89702606 -124.86328125 64.90234375 C-123.37141548 64.90446617 -123.37141548 64.90446617 -121.84941101 64.90663147 C-118.67041018 64.91223239 -115.49147957 64.92478504 -112.3125 64.9375 C-110.15820414 64.94251488 -108.00390718 64.94707781 -105.84960938 64.95117188 C-100.56638226 64.96220212 -95.28319615 64.97894114 -90 65 C-90.01812744 64.07638672 -90.03625488 63.15277344 -90.05493164 62.20117188 C-90.26276067 44.0452275 -84.98805769 27.42249124 -72.25732422 14.06152344 C-53.70328447 -4.48621184 -24.31871034 -9.99623538 0 0 Z " fill="#FE881B" transform="translate(292,579)"/>
<path d="M0 0 C12.17027932 10.51903539 21.06706347 25.75676494 22.79956055 41.91967773 C22.93564524 44.74572794 22.96786319 47.54592211 22.9375 50.375 C22.92614014 51.87498535 22.92614014 51.87498535 22.91455078 53.40527344 C22.5193753 71.31797241 15.94111044 86.20538532 3.5 99.125 C-10.59609537 111.66144336 -27.57261614 118.16033451 -46.4453125 117.47265625 C-64.19036439 116.28539738 -79.39800675 107.61366042 -91.625 95.125 C-104.70031325 79.76880046 -107.63356642 61.30530076 -106.71142578 41.75195312 C-106.26069477 36.15164636 -104.76273948 31.27468295 -102.5 26.125 C-101.89865234 24.62839844 -101.89865234 24.62839844 -101.28515625 23.1015625 C-94.85544485 8.60209738 -81.80200079 -3.73666069 -67.234375 -9.84765625 C-43.58795031 -18.73195581 -20.14336538 -15.23110296 0 0 Z " fill="#192F38" transform="translate(308.5,726.875)"/>
<path d="M0 0 C17.82416875 15.01976096 29.6183673 34.83634243 32.58203125 58.17578125 C34.64273257 82.54726272 28.67778479 106.72787325 12.76171875 125.70703125 C-4.03785143 144.73450142 -25.02781098 155.30938513 -50.40234375 157.5234375 C-69.57501232 157.98859718 -88.92534432 152.58398652 -104.41796875 141.17578125 C-105.330625 140.50804687 -106.24328125 139.8403125 -107.18359375 139.15234375 C-125.187983 125.2215733 -137.18836144 104.75522523 -140.41796875 82.17578125 C-142.32890803 56.44348626 -137.63488539 33.10978576 -120.84375 12.96875 C-120.04324219 12.04707031 -119.24273437 11.12539063 -118.41796875 10.17578125 C-117.44923828 9.05623047 -117.44923828 9.05623047 -116.4609375 7.9140625 C-86.15586394 -24.56021633 -34.45752252 -26.60513358 0 0 Z M-105.41796875 28.17578125 C-117.45112132 45.02647711 -120.50866711 62.12875117 -118.14990234 82.48974609 C-115.31183523 99.2732802 -104.86110892 114.2170516 -91.16796875 123.98828125 C-84.99617737 128.18622367 -78.52377324 130.95346657 -71.41796875 133.17578125 C-70.67417969 133.42070313 -69.93039063 133.665625 -69.1640625 133.91796875 C-54.15420335 138.07629785 -37.32393268 134.93573088 -23.66796875 128.05078125 C-7.43210296 118.56646361 3.9581656 105.49494981 9.13964844 87.20776367 C13.52693065 69.65276948 11.50030834 50.45050786 2.3359375 34.83203125 C-8.15302611 18.94674115 -22.0678679 8.62175814 -40.60546875 4.23828125 C-65.32999006 -0.22933708 -89.30898324 8.96891391 -105.41796875 28.17578125 Z " fill="#FDFAF3" transform="translate(320.41796875,708.82421875)"/>
<path d="M0 0 C9.56526427 7.13984068 16.02297821 19.08240676 17.75 30.875 C18.83061382 47.72194658 16.03056089 61.90679614 4.75 74.875 C-4.21768268 83.24092328 -15.20353615 86.52106137 -27.3046875 86.42041016 C-37.10411987 85.97519556 -43.99738954 82.01879189 -51.25 75.875 C-51.26458252 76.98012939 -51.27916504 78.08525879 -51.29418945 79.22387695 C-51.35214266 83.32235139 -51.42937519 87.42027467 -51.51245117 91.51831055 C-51.54571464 93.29230812 -51.57374218 95.0664119 -51.59643555 96.84057617 C-51.62995602 99.39027176 -51.68226865 101.93899292 -51.73828125 104.48828125 C-51.74786613 105.67905022 -51.74786613 105.67905022 -51.75764465 106.89387512 C-51.90312231 112.33650116 -51.90312231 112.33650116 -53.5378418 114.87426758 C-56.66234118 116.70049358 -60.23508301 116.30281177 -63.75 116.25 C-64.52214844 116.26160156 -65.29429687 116.27320313 -66.08984375 116.28515625 C-71.71519525 116.25590832 -71.71519525 116.25590832 -73.97075176 114.64941502 C-75.64193845 112.33135143 -75.62477857 110.93192575 -75.6242218 108.08592224 C-75.63123611 107.10023254 -75.63825043 106.11454285 -75.64547729 105.09898376 C-75.63783356 104.01887527 -75.63018982 102.93876678 -75.62231445 101.82592773 C-75.62596512 100.68753448 -75.62961578 99.54914124 -75.63337708 98.37625122 C-75.64150041 94.60354822 -75.62785803 90.83127228 -75.61328125 87.05859375 C-75.6127629 84.44450379 -75.61327964 81.83041343 -75.61479187 79.21632385 C-75.61567485 73.73441439 -75.60459276 68.25262858 -75.58618164 62.77075195 C-75.56500334 56.42854251 -75.56150632 50.08651411 -75.5677436 43.74427646 C-75.57343321 37.64723483 -75.56769296 31.55026734 -75.55657005 25.45323372 C-75.55271023 22.85638753 -75.55157306 20.25953587 -75.5531559 17.6626873 C-75.55352508 14.03991042 -75.54094791 10.41741283 -75.5246582 6.79467773 C-75.52713562 5.71254501 -75.52961304 4.63041229 -75.53216553 3.51548767 C-75.52508072 2.5326178 -75.51799591 1.54974792 -75.51069641 0.53709412 C-75.50864354 -0.31996408 -75.50659067 -1.17702227 -75.50447559 -2.06005192 C-75.25 -4.125 -75.25 -4.125 -73.25 -6.125 C-70.39434641 -6.35052341 -67.6674649 -6.44928763 -64.8125 -6.4375 C-63.64750977 -6.46166992 -63.64750977 -6.46166992 -62.45898438 -6.48632812 C-56.70372195 -6.49128528 -56.70372195 -6.49128528 -54.52197266 -4.72998047 C-52.22361376 -1.82990151 -53.07458729 1.3082748 -53.25 4.875 C-52.59 4.875 -51.93 4.875 -51.25 4.875 C-50.99347656 4.26785156 -50.73695313 3.66070313 -50.47265625 3.03515625 C-47.54344043 -2.14010365 -40.51069049 -4.95590805 -34.9921875 -6.6171875 C-22.22496054 -8.98148879 -10.95867714 -6.96024089 0 0 Z " fill="#182E37" transform="translate(828.25,682.125)"/>
<path d="M0 0 C11.81811809 6.30168755 19.09943736 15.64352653 23.3515625 28.25390625 C26.64705933 39.70649996 25.5324856 54.64996084 20.3515625 65.25390625 C19.92746094 66.13175781 19.50335937 67.00960937 19.06640625 67.9140625 C13.5080493 78.17921754 5.05014569 84.70617368 -5.90625 88.33203125 C-16.12337122 90.84898387 -27.30475059 90.29400939 -36.6484375 85.25390625 C-37.87736618 84.40593101 -39.0961656 83.54315465 -40.30639648 82.66870117 C-40.93327866 82.21694016 -41.56016083 81.76517914 -42.20603943 81.29972839 C-42.92002647 80.78204643 -42.92002647 80.78204643 -43.6484375 80.25390625 C-43.62749023 81.29321289 -43.60654297 82.33251953 -43.58496094 83.40332031 C-43.51248076 87.26467067 -43.46660919 91.12596108 -43.42871094 94.98779297 C-43.40861357 96.65814327 -43.38133067 98.32842338 -43.34667969 99.99853516 C-43.29807631 102.40154345 -43.27545094 104.80362059 -43.2578125 107.20703125 C-43.23716736 107.95196838 -43.21652222 108.69690552 -43.19525146 109.4644165 C-43.19376421 112.91236085 -43.3890319 114.89215913 -45.42260742 117.72802734 C-47.78855135 119.34995885 -48.82964145 119.74935359 -51.65234375 119.71484375 C-52.39291016 119.71097656 -53.13347656 119.70710937 -53.89648438 119.703125 C-55.04213867 119.66638672 -55.04213867 119.66638672 -56.2109375 119.62890625 C-56.97857422 119.62761719 -57.74621094 119.62632812 -58.53710938 119.625 C-62.39617604 119.56443923 -64.37548646 119.43587361 -67.6484375 117.25390625 C-68.02316761 115.18616486 -68.02316761 115.18616486 -68.0226593 112.58508301 C-68.03318077 111.10861046 -68.03318077 111.10861046 -68.04391479 109.60231018 C-68.03627106 108.51860641 -68.02862732 107.43490265 -68.02075195 106.31835938 C-68.02440262 105.18011215 -68.02805328 104.04186493 -68.03181458 102.86912537 C-68.03994811 99.09098584 -68.02628632 95.31327144 -68.01171875 91.53515625 C-68.01120048 88.91963705 -68.01171689 86.30411745 -68.01322937 83.68859863 C-68.01411287 78.20071292 -68.00302049 72.7129506 -67.98461914 67.22509766 C-67.96345059 60.87552465 -67.95994127 54.52613246 -67.9661811 48.17653131 C-67.97187102 42.07468635 -67.96612962 35.97291545 -67.95500755 29.87107849 C-67.95114733 27.27144122 -67.95001072 24.67179847 -67.9515934 22.07215881 C-67.9519626 18.44448338 -67.93938442 14.81708683 -67.9230957 11.18945312 C-67.92557312 10.10574936 -67.92805054 9.02204559 -67.93060303 7.90550232 C-67.92351822 6.92118729 -67.91643341 5.93687225 -67.90913391 4.92272949 C-67.90708104 4.06437248 -67.90502817 3.20601547 -67.90291309 2.32164764 C-67.6484375 0.25390625 -67.6484375 0.25390625 -65.6484375 -1.74609375 C-62.78983452 -1.99823719 -60.0702269 -2.11637155 -57.2109375 -2.12109375 C-56.04594727 -2.15783203 -56.04594727 -2.15783203 -54.85742188 -2.1953125 C-49.17222677 -2.22469335 -49.17222677 -2.22469335 -46.65625 0.07421875 C-45.40695601 2.77618018 -44.98331821 5.306956 -44.6484375 8.25390625 C-44.04708984 7.67382812 -44.04708984 7.67382812 -43.43359375 7.08203125 C-31.78404638 -3.59011645 -14.5690533 -6.31619078 0 0 Z " fill="#182E37" transform="translate(825.6484375,822.74609375)"/>
<path d="M0 0 C11.27854344 7.31721453 18.08807196 16.90093462 22.296875 29.52734375 C23.6090551 44.25090946 22.33960468 57.20357303 13.19921875 69.28125 C5.50660218 78.36390817 -5.6978627 85.45777871 -17.75170898 86.74633789 C-32.54340878 87.55065441 -43.9970052 85.07170623 -55.703125 75.52734375 C-56.65832031 74.77710938 -56.65832031 74.77710938 -57.6328125 74.01171875 C-63.82344286 68.56396404 -70.15126099 57.73546453 -70.89599609 49.35766602 C-71.60867402 27.11995512 -71.60867402 27.11995512 -65.703125 17.52734375 C-65.25710938 16.79773438 -64.81109375 16.068125 -64.3515625 15.31640625 C-50.01057633 -5.5941937 -22.25065493 -12.12210536 0 0 Z " fill="#182D37" transform="translate(724.703125,825.47265625)"/>
<path d="M0 0 C3.20034247 2.32534247 3.20034247 2.32534247 4.625 3.75 C5.20783663 9.94600172 3.01631222 13.43121129 -0.390625 18.42578125 C-2.375 20.75 -2.375 20.75 -5.6875 22.25 C-10.06637756 21.65625389 -13.12408588 20.11164533 -16.984375 18.03125 C-24.62533175 13.93609671 -34.6009262 13.05277225 -42.953125 15.5078125 C-46.54524202 17.19743792 -49.72140349 19.02940785 -51.375 22.75 C-51.82122054 26.29050395 -51.67780518 29.53877929 -50.8125 33 C-45.87230348 39.01415229 -37.32659863 40.34076136 -30.1875 42.1875 C-0.68019389 50.16170066 -0.68019389 50.16170066 8.43359375 62.625 C12.84046038 70.48511622 12.86298243 79.96752512 11.0078125 88.6328125 C7.12305165 99.59952676 -0.59872823 105.4269656 -10.71484375 110.33984375 C-26.71700049 116.50502901 -46.40104373 115.61431278 -62.375 109.75 C-68.11367856 107.19492169 -73.20449572 104.53628343 -77.375 99.75 C-78.8012573 93.39667205 -75.6459343 89.20722391 -72.39453125 84.0078125 C-70.375 81.75 -70.375 81.75 -67.9921875 80.7265625 C-64.4200825 80.7585515 -62.65743588 82.04912089 -59.6875 84 C-50.9084386 89.32483022 -43.93934551 91.00067414 -33.75 91.1875 C-32.55008423 91.22121704 -32.55008423 91.22121704 -31.32592773 91.25561523 C-25.73588984 91.23310966 -20.88423718 90.23924201 -16.375 86.75 C-14.0709281 83.04873814 -13.91859822 80.08581695 -14.375 75.75 C-17.29188871 70.04880842 -22.66660664 68.75172537 -28.375 66.75 C-32.47635541 65.53201968 -36.61104419 64.45696901 -40.75 63.375 C-65.59917756 56.58196058 -65.59917756 56.58196058 -73.375 44.75 C-77.95363339 36.20408484 -79.06898967 26.91132527 -76.4921875 17.5390625 C-72.9630377 8.26043686 -67.8525474 1.26609465 -58.8359375 -3.15234375 C-58.02382813 -3.51457031 -57.21171875 -3.87679687 -56.375 -4.25 C-55.58351563 -4.64316406 -54.79203125 -5.03632812 -53.9765625 -5.44140625 C-37.12218977 -12.53408217 -15.13989365 -9.77834005 0 0 Z " fill="#182D37" transform="translate(538.375,653.25)"/>
<path d="M0 0 C1.8203125 1.3671875 1.8203125 1.3671875 3.8203125 3.3671875 C4.48169466 8.50561812 3.16335953 11.08480787 0.1328125 15.1796875 C-0.89392578 16.61248047 -0.89392578 16.61248047 -1.94140625 18.07421875 C-4.47872174 20.67352799 -5.57375035 21.32280674 -9.1796875 21.3671875 C-11.64453125 20.44140625 -11.64453125 20.44140625 -14.1171875 19.0546875 C-20.87258006 15.31834518 -26.47917343 14.0048647 -34.1171875 13.9921875 C-34.88998047 13.96769531 -35.66277344 13.94320312 -36.45898438 13.91796875 C-42.17868687 13.88895927 -45.49628757 15.05351756 -50.1796875 18.3671875 C-52.88504981 22.42523097 -52.80930074 25.60731141 -52.1796875 30.3671875 C-50.65639648 33.63138255 -49.23415836 34.9125516 -45.93505859 36.33496094 C-38.06958792 39.14621568 -30.11251718 41.45158673 -22.05273438 43.63476562 C-9.96908473 47.03499415 0.69081421 52.05760992 8.3359375 62.421875 C12.31640761 69.85021711 11.98423911 79.24315556 10.16015625 87.2734375 C6.77934596 96.75726896 -0.27834581 103.84948848 -9.1796875 108.3671875 C-26.74256581 115.03852356 -46.53354173 115.86005393 -64.0546875 108.4921875 C-69.42222602 105.87851669 -75.26774326 102.98495654 -79.1796875 98.3671875 C-79.32764835 92.30079249 -75.46721753 87.21564028 -72.1796875 82.3671875 C-70.1796875 80.3671875 -70.1796875 80.3671875 -67.83984375 80.0703125 C-64.70635832 80.42001131 -63.20707539 81.34677344 -60.6171875 83.1171875 C-49.52444786 90.02151807 -38.31931232 92.07120778 -25.3671875 89.89453125 C-21.32595728 88.78452229 -19.48546716 87.70279932 -16.6171875 84.5546875 C-15.05620744 81.09338388 -14.69111405 79.11291726 -15.1796875 75.3671875 C-16.74369927 71.47241897 -18.68382221 70.15807019 -22.50878906 68.38964844 C-29.03229456 65.89235036 -35.87224991 64.23198185 -42.62011719 62.4453125 C-56.28874193 58.80208078 -67.61798975 54.0647296 -75.109375 41.390625 C-78.93486586 34.15849265 -79.49111869 25.54585043 -77.4921875 17.65234375 C-73.34329028 6.43303419 -66.16360515 -0.85271741 -55.3828125 -5.95703125 C-38.07417714 -12.3468772 -15.41286738 -10.08367256 0 0 Z " fill="#192E37" transform="translate(539.1796875,798.6328125)"/>
<path d="M0 0 C9.17137585 6.5251545 15.87144987 15.42680024 17.9921875 26.5703125 C19.65734806 40.82571144 17.96539817 52.28995022 9.23046875 64.0234375 C2.4791274 72.08104652 -6.07789118 77.94840744 -16.6875 79.3125 C-25.14850233 79.84717531 -32.92885411 79.98373666 -40.6875 76.3125 C-41.42226562 75.98378906 -42.15703125 75.65507813 -42.9140625 75.31640625 C-54.58570695 69.52069277 -60.95063706 60.11499553 -65.49609375 48.19140625 C-69.17444391 35.98943091 -66.19808091 24.20480603 -60.515625 13.28125 C-55.65609882 5.38971176 -49.01273485 0.16537638 -40.6875 -3.6875 C-39.5325 -4.285625 -38.3775 -4.88375 -37.1875 -5.5 C-24.71536052 -9.84900255 -10.8758049 -6.62888618 0 0 Z " fill="#305671" transform="translate(290.6875,741.6875)"/>
<path d="M0 0 C0.76376953 -0.01998047 1.52753906 -0.03996094 2.31445312 -0.06054688 C3.05501953 -0.05990234 3.79558594 -0.05925781 4.55859375 -0.05859375 C5.23075928 -0.06044678 5.9029248 -0.0622998 6.59545898 -0.06420898 C9.67351584 0.72087316 10.72565904 1.84164215 12.5625 4.4375 C13.16743573 7.40801544 13.16741152 10.33525531 13.171875 13.359375 C13.19667938 14.64935394 13.19667938 14.64935394 13.22198486 15.96539307 C13.27048368 18.70616788 13.29183956 21.4463878 13.3125 24.1875 C13.34065817 26.04820503 13.37058539 27.90888419 13.40234375 29.76953125 C13.47624297 34.32547515 13.52580595 38.88111067 13.5625 43.4375 C14.10011963 42.95466553 14.63773926 42.47183105 15.19165039 41.97436523 C15.90313232 41.34216064 16.61461426 40.70995605 17.34765625 40.05859375 C18.05027588 39.43138428 18.75289551 38.8041748 19.47680664 38.15795898 C26.66610723 32.22760651 35.70870909 32.6638569 44.57568359 33.22167969 C51.66749241 33.99203592 57.67524135 37.32809323 62.5625 42.4375 C70.51249854 53.04400911 72.03060473 64.55275527 71.9609375 77.5 C71.96380768 78.69431641 71.96667786 79.88863281 71.96963501 81.11914062 C71.97166144 83.61995931 71.96623208 86.12079436 71.95361328 88.62158203 C71.93742565 92.4551082 71.95356952 96.28759824 71.97265625 100.12109375 C71.97067579 102.55989816 71.96683622 104.99870192 71.9609375 107.4375 C71.96701019 108.58226807 71.97308289 109.72703613 71.9793396 110.90649414 C71.96515488 112.49965454 71.96515488 112.49965454 71.95068359 114.125 C71.94829681 115.05699219 71.94591003 115.98898437 71.94345093 116.94921875 C71.49173194 119.8997402 70.59749056 121.28289521 68.5625 123.4375 C66.50952148 123.92333984 66.50952148 123.92333984 64.18359375 123.8984375 C63.34505859 123.89457031 62.50652344 123.89070312 61.64257812 123.88671875 C60.77052734 123.86222656 59.89847656 123.83773437 59 123.8125 C57.68612305 123.81056641 57.68612305 123.81056641 56.34570312 123.80859375 C49.84349385 123.71849385 49.84349385 123.71849385 47.5625 121.4375 C47.30421448 119.32139587 47.30421448 119.32139587 47.29125977 116.67163086 C47.28107315 115.6797728 47.27088654 114.68791473 47.26039124 113.66600037 C47.25825119 112.58899368 47.25611115 111.511987 47.25390625 110.40234375 C47.22872887 108.12564867 47.20333113 105.84895603 47.17773438 103.57226562 C47.14908039 99.98023201 47.12506955 96.38824101 47.10620117 92.79614258 C47.08443383 89.33130827 47.04496482 85.86699554 47.00390625 82.40234375 C47.00379044 81.33950668 47.00367462 80.27666962 47.0035553 79.18162537 C46.9010403 71.38913097 46.03318813 64.70949239 41.25 58.375 C36.38030848 54.82110897 29.22954547 55.6421252 23.5625 56.4375 C19.49176096 58.44155614 17.16497726 60.71967534 14.5625 64.4375 C13.57270731 67.40687806 13.42703301 69.38822074 13.40478516 72.48803711 C13.38939194 74.02994972 13.38939194 74.02994972 13.37368774 75.60301208 C13.36638641 76.71241653 13.35908508 77.82182098 13.3515625 78.96484375 C13.32350085 81.3066477 13.29483643 83.64844449 13.265625 85.99023438 C13.22430567 89.68806816 13.18742345 93.38576727 13.16113281 97.08374023 C13.13358143 100.64855635 13.0877164 104.21276166 13.0390625 107.77734375 C13.03580963 108.88472397 13.03255676 109.99210419 13.02920532 111.13304138 C13.01263885 112.16413528 12.99607239 113.19522919 12.97900391 114.25756836 C12.97091705 115.16341171 12.9628302 116.06925507 12.95449829 117.00254822 C12.48616491 119.91166599 11.5652816 121.30429833 9.5625 123.4375 C7.50952148 123.92333984 7.50952148 123.92333984 5.18359375 123.8984375 C4.34505859 123.89457031 3.50652344 123.89070312 2.64257812 123.88671875 C1.77052734 123.86222656 0.89847656 123.83773437 0 123.8125 C-0.87591797 123.81121094 -1.75183594 123.80992187 -2.65429688 123.80859375 C-9.15650615 123.71849385 -9.15650615 123.71849385 -11.4375 121.4375 C-11.69197559 119.35693455 -11.69197559 119.35693455 -11.69819641 116.73744202 C-11.70528122 115.74615799 -11.71236603 114.75487396 -11.71966553 113.73355103 C-11.71718811 112.64206757 -11.71471069 111.55058411 -11.7121582 110.42602539 C-11.71726913 109.27963089 -11.72238007 108.13323639 -11.72764587 106.95210266 C-11.74159467 103.14640138 -11.74058112 99.34088012 -11.73828125 95.53515625 C-11.74216525 92.89961173 -11.7464993 90.26406785 -11.75126648 87.62852478 C-11.7594866 82.09779249 -11.75856669 76.56711126 -11.75317383 71.03637695 C-11.74713307 64.64020987 -11.75944542 58.2442627 -11.7807439 51.84813315 C-11.80046736 45.69930784 -11.80353561 39.55058557 -11.80000877 33.40173149 C-11.80052356 30.78337525 -11.8057905 28.16501562 -11.81582069 25.54667854 C-11.82810707 21.89040128 -11.82143998 18.2346377 -11.80981445 14.57836914 C-11.81745819 13.48890991 -11.82510193 12.39945068 -11.83297729 11.27697754 C-11.82596298 10.28287369 -11.81894867 9.28876984 -11.8117218 8.26454163 C-11.81188954 7.39973207 -11.81205729 6.5349225 -11.81223011 5.64390659 C-10.73497013 -0.69898785 -5.30532136 -0.04899961 0 0 Z " fill="#1A2F38" transform="translate(572.4375,786.5625)"/>
<path d="M0 0 C1.40088867 -0.02416992 1.40088867 -0.02416992 2.83007812 -0.04882812 C13.42174942 -0.05617835 22.91882442 2.63876816 30.875 9.83984375 C36.9647182 16.31016933 40.29140883 25.31192823 40.34863281 34.11328125 C40.35824036 35.3046167 40.3678479 36.49595215 40.37774658 37.72338867 C40.38199646 39.01092041 40.38624634 40.29845215 40.390625 41.625 C40.39637821 42.95874025 40.40213592 44.29248049 40.40789795 45.6262207 C40.41839481 48.42041407 40.42424663 51.21457876 40.42773438 54.00878906 C40.43322824 57.59017738 40.45728021 61.17118726 40.48570633 64.75245667 C40.5043194 67.50623693 40.50953749 70.25992557 40.51107025 73.01376343 C40.51557094 74.97642409 40.53421941 76.93903574 40.55303955 78.90161133 C40.55003845 80.09294678 40.54703735 81.28428223 40.54394531 82.51171875 C40.54941376 84.08699341 40.54941376 84.08699341 40.55499268 85.6940918 C40.1875 88.3125 40.1875 88.3125 38.89569092 90.14794922 C35.96039375 92.14907367 32.61362221 91.78352967 29.1875 91.75 C28.46304688 91.76998047 27.73859375 91.78996094 26.9921875 91.81054688 C21.72512908 91.80568797 21.72512908 91.80568797 19.25 89.53515625 C18.25135315 87.44607516 17.59387454 85.58819744 17.1875 83.3125 C16.71441406 83.71082031 16.24132812 84.10914063 15.75390625 84.51953125 C15.09261719 85.04933594 14.43132813 85.57914063 13.75 86.125 C13.11191406 86.64707031 12.47382812 87.16914062 11.81640625 87.70703125 C5.00893109 91.8643452 -1.8880027 92.84365815 -9.75 92.75 C-11.0649646 92.74081543 -11.0649646 92.74081543 -12.40649414 92.73144531 C-18.85662447 92.57545667 -24.2183007 91.71662979 -29.8125 88.3125 C-30.740625 87.77625 -31.66875 87.24 -32.625 86.6875 C-39.13955865 79.61455061 -40.65279349 72.43279312 -40.2890625 62.9375 C-39.20359808 54.68085262 -35.43854199 48.94495143 -28.99609375 43.78125 C-21.62539303 38.82349782 -14.57623045 37.17733519 -5.76171875 37.21484375 C-5.10291214 37.2162587 -4.44410553 37.21767365 -3.76533508 37.21913147 C-1.67684238 37.224695 0.41154011 37.23724053 2.5 37.25 C3.92252449 37.25501972 5.34505066 37.2595818 6.76757812 37.26367188 C10.24092077 37.27465243 13.71419961 37.29189165 17.1875 37.3125 C16.59401139 35.53805943 15.98727999 33.76804447 15.375 32 C15.03855469 31.01386719 14.70210937 30.02773438 14.35546875 29.01171875 C12.69579714 25.17615659 11.24817856 23.7561923 7.4140625 22.15234375 C-2.08595832 19.67957804 -10.49915436 20.87865197 -19.19140625 25.21875 C-22.06042289 26.41595516 -23.74447241 26.80798896 -26.8125 26.3125 C-28.796875 24.73828125 -28.796875 24.73828125 -30.5625 22.625 C-31.15546875 21.94050781 -31.7484375 21.25601563 -32.359375 20.55078125 C-33.94792178 18.10390677 -34.43038774 16.18336971 -34.8125 13.3125 C-24.62442815 3.78886762 -13.8640465 -0.04725306 0 0 Z " fill="#182D36" transform="translate(696.8125,674.6875)"/>
<path d="M0 0 C0.89460938 0.36222656 1.78921875 0.72445312 2.7109375 1.09765625 C19.84585541 8.87427284 29.68759857 22.92487457 36.13671875 40.01171875 C39.05207907 49.29820795 39.24370694 58.64115405 39.29516602 68.29760742 C39.30673643 69.80942099 39.32726753 71.32119214 39.35668945 72.83276367 C39.39945763 75.03592198 39.41553858 77.23788402 39.42578125 79.44140625 C39.44765503 81.40122437 39.44765503 81.40122437 39.4699707 83.40063477 C38.92154854 87.60083629 37.64087047 89.73024919 35 93 C31.36918339 95.31968839 28.0723983 95.2626589 23.93359375 94.61328125 C20.71413136 93.59215884 19.04068274 91.59723258 17 89 C15.82789928 85.48369783 15.85657652 82.6555153 15.82421875 78.9453125 C15.80098013 77.51040265 15.77686128 76.07550684 15.75195312 74.640625 C15.71719606 72.39867305 15.6876958 70.15722458 15.67407227 67.91503906 C15.56931451 53.46813893 13.37729396 40.61180189 4 29 C-4.1941738 21.11782881 -14.60224178 17.01905171 -25.875 16.6875 C-36.53767139 16.91522037 -46.05140116 20.61848549 -54.0078125 27.81640625 C-66.52968288 41.23269595 -67.44953721 58.250573 -67.43579102 75.66503906 C-67.43936216 77.76677453 -67.46664733 79.8672416 -67.49609375 81.96875 C-67.49794678 83.20044922 -67.4997998 84.43214844 -67.50170898 85.70117188 C-68.08899558 89.589176 -69.26707167 91.2285079 -72 94 C-75.69725375 95.84862688 -79.96461442 95.47587094 -84 95 C-86.93423195 93.20353146 -88.47205355 92.0558929 -90 89 C-90.13584781 86.33119957 -90.21278956 83.68993775 -90.23828125 81.01953125 C-90.246353 80.21448654 -90.25442474 79.40944183 -90.26274109 78.58000183 C-90.2765976 76.86593787 -90.28731272 75.15184612 -90.29516602 73.43774414 C-90.30656888 71.710772 -90.3268297 69.98383171 -90.35668945 68.25708008 C-90.70805483 47.92696151 -86.75441444 29.2762914 -72.25732422 14.06152344 C-53.70328447 -4.48621184 -24.31871034 -9.99623538 0 0 Z " fill="#1A2E38" transform="translate(292,579)"/>
<path d="M0 0 C1.1456543 -0.01740234 1.1456543 -0.01740234 2.31445312 -0.03515625 C5.71354534 -0.01740642 8.00075022 0.08310176 11.05078125 1.66796875 C13.36911158 4.28582496 13.30639839 6.98165363 13.5625 10.375 C14.51125 9.4675 15.46 8.56 16.4375 7.625 C25.21641558 0.27440005 34.54087452 -0.66339001 45.61230469 0.14746094 C53.11013112 1.02226993 59.6303138 4.7192657 64.5625 10.375 C71.86865349 20.58336688 72.8771572 28.97452333 72.8984375 41.296875 C72.90487259 42.64731993 72.91160147 43.99776349 72.91860962 45.34820557 C72.93053135 48.16560097 72.93429515 50.98287415 72.93310547 53.80029297 C72.93290121 57.41086754 72.9603343 61.02066441 72.99464989 64.63105392 C73.0168629 67.41401791 73.02094495 70.19679194 73.01988602 72.97983551 C73.02339083 74.95803141 73.04506616 76.93616805 73.06698608 78.91424561 C73.06083282 80.11269104 73.05467957 81.31113647 73.04833984 82.54589844 C73.05118988 83.60178162 73.05403992 84.65766479 73.05697632 85.74554443 C72.5625 88.375 72.5625 88.375 70.65507507 90.21505737 C68.40287446 91.46348259 67.11121978 91.76058717 64.55859375 91.7734375 C63.81802734 91.77730469 63.07746094 91.78117188 62.31445312 91.78515625 C61.16879883 91.76775391 61.16879883 91.76775391 60 91.75 C59.23236328 91.76160156 58.46472656 91.77320313 57.67382812 91.78515625 C52.10490437 91.756025 52.10490437 91.756025 49.84361267 90.16752625 C48.129929 87.76974889 48.19050416 86.23110231 48.19360352 83.29614258 C48.18672012 82.26109085 48.17983673 81.22603912 48.17274475 80.15962219 C48.17890305 79.04089218 48.18506134 77.92216217 48.19140625 76.76953125 C48.17401629 74.40038924 48.15643199 72.03124864 48.13867188 69.66210938 C48.1286169 65.92730001 48.12499767 62.19258598 48.12670898 58.45776367 C48.12312792 54.85306461 48.09573335 51.24909928 48.06640625 47.64453125 C48.07458878 46.53592239 48.0827713 45.42731354 48.09120178 44.28511047 C48.02658319 37.51896349 47.16938919 33.14325173 43.5625 27.375 C38.9945832 23.08392664 34.2836228 23.08898073 28.2890625 23.16015625 C23.39251058 23.54598771 20.63603532 25.24182383 17.3125 28.75 C14.49165717 32.98126424 13.31437614 36.47825103 13.30712891 41.56079102 C13.29669052 43.07244591 13.29669052 43.07244591 13.28604126 44.61463928 C13.28703827 45.69184738 13.28803528 46.76905548 13.2890625 47.87890625 C13.2687824 50.16862476 13.24793179 52.45833827 13.2265625 54.74804688 C13.20391615 58.35152416 13.187472 61.95480429 13.18164062 65.55834961 C13.1721426 69.04056222 13.13840756 72.52189087 13.1015625 76.00390625 C13.10660797 77.08313858 13.11165344 78.16237091 13.11685181 79.27430725 C13.10358856 80.27892502 13.09032532 81.28354279 13.07666016 82.31860352 C13.0723851 83.64167259 13.0723851 83.64167259 13.06802368 84.99147034 C12.3991362 88.14525565 11.01959427 89.35915807 8.5625 91.375 C6.59545898 91.87670898 6.59545898 91.87670898 4.55859375 91.87109375 C3.44774414 91.87206055 3.44774414 91.87206055 2.31445312 91.87304688 C1.55068359 91.85306641 0.78691406 91.83308594 0 91.8125 C-1.15145508 91.82313477 -1.15145508 91.82313477 -2.32617188 91.83398438 C-7.76918934 91.77229368 -7.76918934 91.77229368 -10.15518188 90.35388184 C-12.18905581 87.21519408 -11.85389654 83.89988762 -11.82568359 80.27929688 C-11.83094055 79.45462418 -11.83619751 78.62995148 -11.84161377 77.7802887 C-11.85482976 75.05125044 -11.84607015 72.32279431 -11.8359375 69.59375 C-11.83795778 67.69950244 -11.84086883 65.80525564 -11.84463501 63.91101074 C-11.84906053 59.93978475 -11.84261998 55.96876109 -11.82861328 51.99755859 C-11.81152128 46.90281825 -11.82136124 41.80855199 -11.83933067 36.71382904 C-11.85016236 32.80194516 -11.846725 28.89017399 -11.8389473 24.97828674 C-11.83694359 23.0995732 -11.83941054 21.22084949 -11.84638596 19.34214783 C-11.85399034 16.71805649 -11.84241076 14.09473687 -11.82568359 11.47070312 C-11.83175629 10.69138931 -11.83782898 9.9120755 -11.84408569 9.10914612 C-11.78254884 3.9080729 -11.78254884 3.9080729 -10.15518188 1.3939209 C-7.04911432 -0.44858392 -3.505022 -0.05297262 0 0 Z " fill="#182D37" transform="translate(572.4375,674.625)"/>
<path d="M0 0 C7.97026599 7.39640684 12.33270229 16.72210522 14.44140625 27.265625 C14.44140625 31.225625 14.44140625 35.185625 14.44140625 39.265625 C-13.27859375 39.265625 -40.99859375 39.265625 -69.55859375 39.265625 C-69.55859375 24.02776225 -65.62388299 11.68288616 -55.0859375 0.53125 C-39.13926418 -13.76406766 -16.51569358 -12.98176788 0 0 Z " fill="#FCFAF3" transform="translate(293.55859375,604.734375)"/>
<path d="M0 0 C3.5 1.8125 3.5 1.8125 6 4 C6 4.99 6 5.98 6 7 C5.21625 6.360625 4.4325 5.72125 3.625 5.0625 C-0.17367482 2.07782692 -2.15772359 1.5343965 -7 2 C-10.01333109 3.62256289 -12.26132782 5.10074691 -14.4375 7.75 C-15.32494823 11.29979291 -15.08221461 14.54787239 -14 18 C-10.77507836 21.88644402 -8.73130852 23.83666901 -3.6875 24.3125 C0.61926041 23.9475203 2.02483986 23.06016472 5 20 C7.32325083 16.6312863 7.5378636 13.00518216 8 9 C8.33 9 8.66 9 9 9 C9.42803396 15.20649237 8.90249282 17.9149336 5 23 C3.79766288 26.60701135 4.08127763 29.32874665 4.25 33.125 C4.38988356 41.23824665 2.63018408 46.13128227 -2.90234375 52.02734375 C-9.48524012 58.20591635 -15.11736595 59.42651256 -24.03125 59.25 C-30.73120914 58.68579291 -36.51518519 56.15627014 -41 51 C-46.42352653 42.80607748 -47.9087102 35.81911857 -47 26 C-44.86520374 19.01550354 -40.11999959 13.12968029 -34.0625 9.125 C-28.03859216 5.92926584 -21.62993335 6.57560882 -15 7 C-14.57074219 6.06414063 -14.57074219 6.06414063 -14.1328125 5.109375 C-11.23536474 -0.28587255 -5.63215272 -1.01005468 0 0 Z " fill="#192F39" transform="translate(288,745)"/>
<path d="M0 0 C4.78870315 3.70036152 7.48960278 8.19390318 9 14 C9.93748392 23.69775037 9.43695003 31.39904439 4.3125 39.75 C-1.11476115 45.03057842 -5.91961813 46.29096393 -13.5 46.5625 C-21.63635213 46.33581556 -25.63513634 44.2739214 -31.3125 38.75 C-36.13203006 30.89595101 -37.25712108 22.57893364 -35.53125 13.546875 C-33.5573274 6.6381459 -29.97467377 1.84429774 -23.875 -1.9375 C-16.04651966 -4.73214598 -7.26675686 -3.69712191 0 0 Z " fill="#FCFAF3" transform="translate(812,700)"/>
<path d="M0 0 C4.74224721 3.07863629 7.65278323 7.46616219 9.4296875 12.796875 C11.29139642 21.81900284 10.85871476 31.30235182 5.9375 39.2578125 C2.16596318 43.52348115 -2.01940364 46.06765418 -7.671875 46.59375 C-22.8916724 46.93119339 -22.8916724 46.93119339 -28.0625 42.2578125 C-33.99359202 35.19260986 -35.548918 27.31767819 -35.37890625 18.26171875 C-34.75654382 12.35311745 -32.48424373 8.03499216 -28.8125 3.4453125 C-19.95367078 -3.60148347 -10.38785918 -5.30522808 0 0 Z " fill="#FBF9F2" transform="translate(816.0625,843.7421875)"/>
<path d="M0 0 C5.87186213 5.1290362 9.45837337 10.85836127 10.27734375 18.6328125 C10.59162465 27.65896009 8.71739142 34.6218486 2.79296875 41.4921875 C-2.94362669 46.31642681 -8.37479301 46.53329514 -15.5859375 46.3359375 C-21.34256758 45.76949564 -24.90880201 44.38659143 -28.7421875 40.01171875 C-33.70782625 33.13347752 -36.18486347 25.5674743 -35 17 C-33.12998507 8.80980801 -29.97896165 3.70903675 -23 -1 C-16.41135498 -4.98786409 -6.42421395 -3.98514517 0 0 Z " fill="#FBF9F2" transform="translate(713,844)"/>
<path d="M0 0 C0.67671753 -0.00287018 1.35343506 -0.00574036 2.05065918 -0.00869751 C3.47958209 -0.01073647 4.90853302 -0.00521819 6.33740234 0.00732422 C8.52374725 0.02338239 10.70824379 0.00747216 12.89453125 -0.01171875 C14.28385824 -0.00973629 15.67318409 -0.00589254 17.0625 0 C18.32642578 0.00338379 19.59035156 0.00676758 20.89257812 0.01025391 C24.03125 0.3984375 24.03125 0.3984375 25.94189453 1.61083984 C27.3864992 3.98139013 27.41911853 5.62835955 27.4296875 8.3984375 C27.43548828 9.8525 27.43548828 9.8525 27.44140625 11.3359375 C27.42980469 12.3465625 27.41820312 13.3571875 27.40625 14.3984375 C27.41785156 15.4090625 27.42945313 16.4196875 27.44140625 17.4609375 C27.43753906 18.4303125 27.43367188 19.3996875 27.4296875 20.3984375 C27.42630371 21.2853125 27.42291992 22.1721875 27.41943359 23.0859375 C27.03125 25.3984375 27.03125 25.3984375 25.94189453 27.18603516 C23.01895272 29.04079225 20.49510324 28.78768522 17.0625 28.796875 C16.38578247 28.79974518 15.70906494 28.80261536 15.01184082 28.80557251 C13.58291791 28.80761147 12.15396698 28.80209319 10.72509766 28.78955078 C8.53875275 28.77349261 6.35425621 28.78940284 4.16796875 28.80859375 C2.77864176 28.80661129 1.38931591 28.80276754 0 28.796875 C-1.26392578 28.79349121 -2.52785156 28.79010742 -3.83007812 28.78662109 C-6.96875 28.3984375 -6.96875 28.3984375 -8.87939453 27.18603516 C-10.3239992 24.81548487 -10.35661853 23.16851545 -10.3671875 20.3984375 C-10.37105469 19.4290625 -10.37492187 18.4596875 -10.37890625 17.4609375 C-10.36730469 16.4503125 -10.35570312 15.4396875 -10.34375 14.3984375 C-10.35535156 13.3878125 -10.36695313 12.3771875 -10.37890625 11.3359375 C-10.37503906 10.3665625 -10.37117188 9.3971875 -10.3671875 8.3984375 C-10.36380371 7.5115625 -10.36041992 6.6246875 -10.35693359 5.7109375 C-9.96875 3.3984375 -9.96875 3.3984375 -8.87939453 1.61083984 C-5.95645272 -0.24391725 -3.43260324 0.00918978 0 0 Z " fill="#1B2E3D" transform="translate(351.96875,681.6015625)"/>
<path d="M0 0 C1.06089844 0.01353516 2.12179687 0.02707031 3.21484375 0.04101562 C5.81043687 0.07609121 8.40494067 0.12524156 11 0.1875 C11.12333946 7.07999949 11.1988154 13.64806999 6.3125 19.0546875 C1.28742896 23.43068686 -2.0917781 24.41050777 -8.75 24.5 C-9.45382812 24.52900391 -10.15765625 24.55800781 -10.8828125 24.58789062 C-16.03526184 24.65014141 -18.90826783 23.57008227 -23 20.1875 C-24.74103202 16.70543596 -24.44222386 12.99447058 -24 9.1875 C-22.12378371 4.96601335 -20.75419812 3.55335528 -16.59375 1.53515625 C-11.13749761 -0.39364634 -5.71922429 -0.13958057 0 0 Z " fill="#FAF8F2" transform="translate(703,725.8125)"/>
<path d="M0 0 C3.77062132 2.07014504 7.005306 4.12142833 9 8 C9.55425081 12.27564908 9.3051626 14.43326945 7.25 18.25 C4.09764348 22.10288019 2.65834709 23.78502908 -2.375 24.4375 C-6.72041932 23.91305284 -8.69833295 22.85143973 -12 20 C-14.38621552 16.53613876 -15.01149219 14.65505456 -14.9375 10.4375 C-13.71897365 5.96957005 -11.92118047 3.34482633 -8.125 0.6875 C-5.18445523 -0.26385272 -3.08192861 -0.36983143 0 0 Z " fill="#F8F7F2" transform="translate(287,746)"/>
<path d="M0 0 C2.18261383 1.05088814 4.20432643 2.13550068 6.2265625 3.4765625 C9.37755956 5.20739187 12.16904658 5.86041408 15.6875 6.5625 C21.78470255 7.78470255 21.78470255 7.78470255 24 10 C17.79750708 12.01161932 12.60418996 9.73730666 7 7 C4.35001312 5.16328496 2.29506847 3.29506847 0 1 C0 0.67 0 0.34 0 0 Z " fill="#18262B" transform="translate(782,901)"/>
<path d="M0 0 C0.33 0 0.66 0 1 0 C1 10.89 1 21.78 1 33 C0.01 33 -0.98 33 -2 33 C-2 32.34 -2 31.68 -2 31 C-1.34 31 -0.68 31 0 31 C0 20.77 0 10.54 0 0 Z " fill="#213A44" transform="translate(774,761)"/>
<path d="M0 0 C4.59049756 3.60681951 6.3961213 8.5451417 8 14 C8.27848383 16.45849004 8.2155021 18.52172587 8 21 C7.67 21 7.34 21 7 21 C4 12 4 12 3.0625 8.625 C2.19017351 5.64882728 1.20930396 2.85050219 0 0 Z " fill="#151D22" transform="translate(841,837)"/>
<path d="M0 0 C0.66 0.66 1.32 1.32 2 2 C-0.31 4.64 -2.62 7.28 -5 10 C-6.32 9.67 -7.64 9.34 -9 9 C-6.03 6.03 -3.06 3.06 0 0 Z " fill="#15232B" transform="translate(671,829)"/>
<path d="M0 0 C0.66 0.33 1.32 0.66 2 1 C1.01 1 0.02 1 -1 1 C-0.67 0.67 -0.34 0.34 0 0 Z M-3 2 C-2.34 2 -1.68 2 -1 2 C-1.4640625 2.7734375 -1.4640625 2.7734375 -1.9375 3.5625 C-3.29059287 6.66665423 -3.61359424 9.65115007 -4 13 C-4.99 13 -5.98 13 -7 13 C-7.35858439 9.14521782 -7.2754818 7.42240542 -5.125 4.125 C-4.42375 3.42375 -3.7225 2.7225 -3 2 Z " fill="#F2F3F0" transform="translate(493,813)"/>
<path d="M0 0 C0 4.62 0 9.24 0 14 C-0.99 14 -1.98 14 -3 14 C-3 9.71 -3 5.42 -3 1 C-1 0 -1 0 0 0 Z " fill="#22353C" transform="translate(464,673)"/>
<path d="M0 0 C1.32 0 2.64 0 4 0 C4 0.66 4 1.32 4 2 C5.98 2 7.96 2 10 2 C10 2.66 10 3.32 10 4 C11.32 4.33 12.64 4.66 14 5 C13.67 5.66 13.34 6.32 13 7 C8.05 5.35 3.1 3.7 -2 2 C-1.34 1.34 -0.68 0.68 0 0 Z " fill="#EDEFEE" transform="translate(515,840)"/>
<path d="M0 0 C1.01299606 2.65602626 1.07672553 3.78395707 0.109375 6.5078125 C-0.33921875 7.37148438 -0.7878125 8.23515625 -1.25 9.125 C-1.68828125 9.99382813 -2.1265625 10.86265625 -2.578125 11.7578125 C-4 14 -4 14 -7 16 C-6.67 14.906875 -6.34 13.81375 -6 12.6875 C-4.86913351 9.15421116 -4.86913351 9.15421116 -5 6 C-4.01 5.67 -3.02 5.34 -2 5 C-0.78130071 2.49552484 -0.78130071 2.49552484 0 0 Z " fill="#FD740F" transform="translate(413,878)"/>
<path d="M0 0 C0.33 0 0.66 0 1 0 C1 5.28 1 10.56 1 16 C0.01 15.67 -0.98 15.34 -2 15 C-2 11.7 -2 8.4 -2 5 C-1.67 5 -1.34 5 -1 5 C-0.67 3.35 -0.34 1.7 0 0 Z " fill="#C8CBC9" transform="translate(653,860)"/>
<path d="M0 0 C-4.95 0 -9.9 0 -15 0 C-14.67 -0.66 -14.34 -1.32 -14 -2 C-8.05605478 -3.65109589 -5.03056283 -3.77292212 0 0 Z " fill="#DADDDA" transform="translate(703,675)"/>
<path d="M0 0 C0.80566406 0.17144531 1.61132812 0.34289062 2.44140625 0.51953125 C4.4375 1.1875 4.4375 1.1875 5.4375 3.1875 C2.1375 3.1875 -1.1625 3.1875 -4.5625 3.1875 C-4.5625 2.5275 -4.5625 1.8675 -4.5625 1.1875 C-5.2225 0.8575 -5.8825 0.5275 -6.5625 0.1875 C-3.9640401 -1.11172995 -2.80288549 -0.62536289 0 0 Z " fill="#FD7C13" transform="translate(377.5625,644.8125)"/>
<path d="M0 0 C3.16115776 1.36983503 3.9927092 1.9890638 6 5 C6.07905064 7.33199388 6.08798769 9.66832622 6 12 C5.01 12.495 5.01 12.495 4 13 C3.896875 11.783125 3.79375 10.56625 3.6875 9.3125 C3.23780688 5.58930552 2.21617222 3.08337005 0 0 Z " fill="#F0F2F1" transform="translate(519,724)"/>
<path d="M0 0 C0.66 0.99 1.32 1.98 2 3 C0.71034824 4.37562854 -0.62689293 5.70766393 -2 7 C-2.66 7 -3.32 7 -4 7 C-4.66 7.66 -5.32 8.32 -6 9 C-5.52797514 4.75177626 -3.03344482 2.80010291 0 0 Z " fill="#FE780E" transform="translate(145,650)"/>
<path d="M0 0 C3.91593446 0.78318689 7.36406635 2.39179858 11 4 C10.67 4.66 10.34 5.32 10 6 C5.05 4.02 5.05 4.02 0 2 C0 1.34 0 0.68 0 0 Z " fill="#EFF1F0" transform="translate(816,818)"/>
<path d="M0 0 C5.94 1.485 5.94 1.485 12 3 C11.67 3.66 11.34 4.32 11 5 C7.1936543 4.32829194 3.64793184 3.27253436 0 2 C0 1.34 0 0.68 0 0 Z " fill="#F0F2F0" transform="translate(483,712)"/>
<path d="M0 0 C4.62 0 9.24 0 14 0 C10.39338934 1.80330533 7.91606575 2.46599103 4 3 C4 2.34 4 1.68 4 1 C2.68 0.67 1.36 0.34 0 0 Z " fill="#DBDEDD" transform="translate(687,695)"/>
<path d="M0 0 C3.63 1.65 7.26 3.3 11 5 C7.23375329 6.25541557 5.62811066 5.37061958 2 4 C2 3.34 2 2.68 2 2 C1.34 2 0.68 2 0 2 C0 1.34 0 0.68 0 0 Z " fill="#0F1A20" transform="translate(477,882)"/>
<path d="M0 0 C4.01778372 1.33926124 4.78023848 3.49134469 7 7 C7.66 7.66 8.32 8.32 9 9 C6.03824877 8.38722388 4.61941217 7.74627478 2 6 C0.8125 2.875 0.8125 2.875 0 0 Z " fill="#EAECEA" transform="translate(657,753)"/>
<path d="M0 0 C3.96 0 7.92 0 12 0 C10.68 0.33 9.36 0.66 8 1 C8 1.66 8 2.32 8 3 C5.125 3.1875 5.125 3.1875 2 3 C1.34 2.01 0.68 1.02 0 0 Z " fill="#2A373D" transform="translate(795,746)"/>
<path d="M0 0 C3.34373475 0.55728913 6.03312999 1.35173889 9 3 C9 3.66 9 4.32 9 5 C5.625 4.75 5.625 4.75 2 4 C0.5625 1.9375 0.5625 1.9375 0 0 Z " fill="#F1F1EF" transform="translate(519,670)"/>
<path d="M0 0 C1.48206495 0.254496 2.96068615 0.52911762 4.4375 0.8125 C5.67306641 1.03873047 5.67306641 1.03873047 6.93359375 1.26953125 C7.95646484 1.63111328 7.95646484 1.63111328 9 2 C9.33 2.99 9.66 3.98 10 5 C6.28111761 4.49287967 3.26545761 3.88391785 0 2 C0 1.34 0 0.68 0 0 Z " fill="#F4F4F2" transform="translate(682,909)"/>
<path d="M0 0 C0.66 0.33 1.32 0.66 2 1 C2.40729228 3.32156597 2.74438677 5.6568787 3 8 C1.68 8 0.36 8 -1 8 C-1.33 7.01 -1.66 6.02 -2 5 C-1.34 4.67 -0.68 4.34 0 4 C0 2.68 0 1.36 0 0 Z " fill="#F1F2EF" transform="translate(711,704)"/>
<path d="M0 0 C0.99 0.33 1.98 0.66 3 1 C1.50260417 2.23697917 0.00520833 3.47395833 -1.4921875 4.7109375 C-2.71051161 5.75250992 -3.86660097 6.86660097 -5 8 C-4.25 3.25 -4.25 3.25 -2 1 C-1.34 0.67 -0.68 0.34 0 0 Z " fill="#F4F5F3" transform="translate(590,679)"/>
<path d="M0 0 C0.66 0.33 1.32 0.66 2 1 C-1.32307692 5.8 -1.32307692 5.8 -4.75 6.8125 C-5.4925 6.874375 -6.235 6.93625 -7 7 C-4.66666667 4.66666667 -2.33333333 2.33333333 0 0 Z " fill="#E5E7E6" transform="translate(310,826)"/>
<path d="M0 0 C-0.33 1.32 -0.66 2.64 -1 4 C-4.75 5.125 -4.75 5.125 -7 4 C-2.25 0 -2.25 0 0 0 Z " fill="#101E25" transform="translate(481,795)"/>
<path d="M0 0 C0.99 0 1.98 0 3 0 C2.67 3.96 2.34 7.92 2 12 C1.67 12 1.34 12 1 12 C0.67 8.04 0.34 4.08 0 0 Z " fill="#21373E" transform="translate(842,708)"/>
<path d="M0 0 C0.99 0 1.98 0 3 0 C3.125 3.375 3.125 3.375 3 7 C2.34 7.66 1.68 8.32 1 9 C0.67 6.03 0.34 3.06 0 0 Z " fill="#FE8D2C" transform="translate(411,835)"/>
<path d="M0 0 C0 2.64 0 5.28 0 8 C-0.99 8.495 -0.99 8.495 -2 9 C-3.35439668 6.29120665 -3.06501451 3.99066732 -3 1 C-1 0 -1 0 0 0 Z " fill="#FD912C" transform="translate(128,764)"/>
</svg>
